<?xml version="1.0" encoding="utf-8"?>
<!-- Generator: Adobe Illustrator 25.0.1, SVG Export Plug-In . SVG Version: 6.00 Build 0)  -->
<svg version="1.0" id="katman_1" xmlns="http://www.w3.org/2000/svg" xmlns:xlink="http://www.w3.org/1999/xlink" x="0px" y="0px"
	 viewBox="0 0 515.9 284.2" style="enable-background:new 0 0 515.9 284.2;" xml:space="preserve">
<style type="text/css">
	.st0{fill:#00B3E7;}
	.st1{fill:#434343;}
</style>
<g>
	<path class="st0" d="M78.3,157.4L46.7,111h65.9L78.3,157.4z M66.1,121.3l12.5,18.4l13.6-18.4L66.1,121.3L66.1,121.3z"/>
	<rect x="56.7" y="162.9" class="st0" width="46" height="10.3"/>
	<path class="st1" d="M152.3,162.9v-16.7h-16v16.7h-9.6v-41.5h9.6v16.2h16v-16.2h9.6v41.5H152.3z"/>
	<path class="st1" d="M173.8,162.9v-41.5h26.3v8.8h-16.7v7.4h15.2v8.5h-15.2v8.1h16.7v8.8L173.8,162.9L173.8,162.9z"/>
	<path class="st1" d="M211.4,162.9v-41.5h9.6v32.8h16.7v8.8L211.4,162.9L211.4,162.9z"/>
	<path class="st1" d="M246.1,162.9v-41.5h9.6v32.8h16.7v8.8L246.1,162.9L246.1,162.9z"/>
	<path class="st1" d="M299.1,163.6c-12.9,0-21.1-9.2-21.1-21.4c0-12.2,8.6-21.5,21.5-21.5c12.9,0,21.1,9.2,21.1,21.5
		c0.4,11.4-8.4,21-19.8,21.5C300.2,163.6,299.6,163.6,299.1,163.6z M299.2,129.3c-6.6,0-11,5.4-11,12.9c0,7.5,4.4,12.9,11,12.9
		c6.6,0,11-5.4,11-12.9C310.2,134.7,305.8,129.3,299.2,129.3L299.2,129.3z"/>
	<path class="st1" d="M341.3,163.6c-5-0.2-9.8-1.6-14-4.3l2.7-8.7c3.4,2.5,7.4,3.9,11.6,4c3.4,0,4.7-1.6,4.7-3.6
		c0-2-1.1-3.6-7.4-6.2c-7.3-2.9-9.9-7.2-9.9-12.2c0-6.1,4.9-12,14.6-12c4.1,0,8.1,1.1,11.6,3.2l-2.5,8.6c-2.7-1.9-5.9-3.1-9.2-3.4
		c-3.5,0-4.9,1.7-4.9,3.4c0,2.7,2.1,3.6,7.3,5.8c7.8,3.3,10.1,7,10.1,12.4C356.1,157.3,351.3,163.6,341.3,163.6z"/>
	<path class="st1" d="M366,162.9v-41.5h9.6v41.5H366z"/>
	<path class="st1" d="M422.8,139.5v19.8c-4.8,2.8-10.2,4.3-15.8,4.2c-12.2,0-21.8-8.7-21.8-21.4c0-12.7,9.7-21.5,22.3-21.5
		c4.9,0,9.7,1.2,13.9,3.6l-4,7.8c-2.9-1.5-6.1-2.3-9.3-2.3c-8.3,0-12.7,5.2-12.7,12.5c0,7.9,5.3,12.9,12.1,12.9
		c2.1,0.2,4.2-0.2,6.1-1.1v-6.2h-8.3v-8.1L422.8,139.5L422.8,139.5z"/>
	<path class="st1" d="M468.1,163.7l-25.1-22.5v21.7h-9.6v-42.1l1.3-0.2l24.7,22.3v-21.5h9.6v42.3L468.1,163.7z"/>
</g>
</svg>
